<svg width="325" height="325" viewBox="0 0 325 325" fill="none" xmlns="http://www.w3.org/2000/svg">
<path fill-rule="evenodd" clip-rule="evenodd" d="M325 162.5C325 252.245 252.245 325 162.5 325C72.7537 325 0 252.245 0 162.5C0 72.7537 72.7537 0 162.5 0C252.245 0 325 72.7537 325 162.5ZM211.25 113.75C211.25 140.675 189.425 162.5 162.5 162.5C135.575 162.5 113.75 140.675 113.75 113.75C113.75 86.8262 135.575 65 162.5 65C189.425 65 211.25 86.8262 211.25 113.75ZM162.5 300.625C191.49 300.625 218.395 291.694 240.612 276.432C250.425 269.691 254.618 256.851 248.914 246.402C237.087 224.742 212.716 211.25 162.498 211.25C112.282 211.25 87.912 224.741 76.0848 246.402C70.3796 256.851 74.5729 269.69 84.3856 276.43C106.603 291.692 133.508 300.625 162.5 300.625Z" fill="black"/>
</svg>
